<svg xmlns="http://www.w3.org/2000/svg" viewBox="0 0 60 40">
  <rect width="60" height="40" fill="#DE2910"/>
  <polygon points="12,8 13.8,13.2 19.4,13.2 14.8,16.6 16.6,22 12,18.6 7.4,22 9.2,16.6 4.6,13.2 10.2,13.2" fill="#FFDE00"/>
  <polygon points="24,6 24.6,8.2 26.8,8.2 25,9.5 25.6,11.7 24,10.4 22.4,11.7 23,9.5 21.2,8.2 23.4,8.2" fill="#FFDE00"/>
  <polygon points="26,12 26.6,14.2 28.8,14.2 27,15.5 27.6,17.7 26,16.4 24.4,17.7 25,15.5 23.2,14.2 25.4,14.2" fill="#FFDE00"/>
  <polygon points="26,18 26.6,20.2 28.8,20.2 27,21.5 27.6,23.7 26,22.4 24.4,23.7 25,21.5 23.2,20.2 25.4,20.2" fill="#FFDE00"/>
  <polygon points="22,22 22.6,24.2 24.8,24.2 23,25.5 23.6,27.7 22,26.4 20.4,27.7 21,25.5 19.2,24.2 21.4,24.2" fill="#FFDE00"/>
</svg>
